<?xml version="1.0" encoding="utf-8"?>
<!-- Generator: Adobe Illustrator 16.0.0, SVG Export Plug-In . SVG Version: 6.00 Build 0)  -->
<!DOCTYPE svg PUBLIC "-//W3C//DTD SVG 1.1//EN" "http://www.w3.org/Graphics/SVG/1.1/DTD/svg11.dtd">
<svg version="1.1" id="レイヤー_1" xmlns="http://www.w3.org/2000/svg" xmlns:xlink="http://www.w3.org/1999/xlink" x="0px"
	 y="0px" width="32px" height="32px" viewBox="0 0 32 32" enable-background="new 0 0 32 32" xml:space="preserve">
<g>
	<path fill-rule="evenodd" clip-rule="evenodd" fill="#FEFEFE" d="M-6.744,17.581c0-7.199,0.006-14.397-0.014-21.597
		c-0.001-0.479,0.094-0.573,0.573-0.572c14.397,0.017,28.795,0.017,43.193,0c0.479,0,0.573,0.094,0.572,0.572
		c-0.017,14.398-0.017,28.795,0,43.193c0.001,0.479-0.093,0.572-0.572,0.572c-14.397-0.017-28.795-0.017-43.193,0
		c-0.479,0-0.574-0.094-0.573-0.572C-6.738,31.979-6.744,24.779-6.744,17.581z M18.699,15.825l0.006,0.005
		c-0.056-0.062-0.111-0.124-0.166-0.186c-0.025-0.041-0.062-0.064-0.11-0.07c-0.032-0.03-0.072-0.042-0.118-0.036
		c-0.628-0.692-1.389-1.032-2.336-1.149c-1.234-0.153-2.813,0.482-3.59,1.44c-0.885,1.092-1.032,2.304-0.968,3.625
		c0.048,0.972-0.547,1.336-1.5,0.988c-0.754-1.282-0.525-2.661-0.264-3.984c0.542-2.744,3.453-4.448,5.862-4.569
		c1.596-0.081,3.131,0.123,4.565,0.874c0.23,0.186,0.486,0.348,0.688,0.561c1.605,1.695,2.094,3.777,1.953,6.022
		c-0.055,0.867-0.251,1.689-0.889,2.458c-1.902,2.297-1.266,5.472,1.566,6.776c1.04,0.808,2.741,0.884,3.883,0.13
		c1.779-1.175,3.021-2.77,3.646-4.824c0.807-2.658,0.902-5.376,0.407-8.08c-0.345-1.877-1.049-3.667-2.106-5.286
		c-0.323-0.495-0.405-1.04-0.003-1.477c0.981-1.067,1.369-2.332,1.271-3.728c-0.088-1.252-0.339-2.479-1.564-3.2
		c-0.357-0.519-0.845-0.474-1.359-0.314c-1.51,0.465-2.746,1.426-4.055,2.25c-0.6,0.377-1.138,0.632-1.858,0.242
		c-0.535-0.29-1.146-0.486-1.745-0.6c-1.778-0.339-3.562-0.609-5.391-0.451c-1.451,0.126-2.867,0.342-4.231,0.891
		C9.717,4.366,9.106,4.767,8.453,4.393C7.677,3.949,6.932,3.449,6.171,2.978c-0.741-0.46-1.447-0.977-2.32-1.196
		C3.052,1.58,2.656,1.7,2.182,2.385c-0.648,0.936-0.75,2.044-0.773,3.1c-0.028,1.234,0.412,2.38,1.348,3.289
		c0.414,0.402,0.458,0.868,0.122,1.422c-1.375,2.267-1.998,4.762-2.069,7.397c-0.028,1.04-0.045,2.083,0.133,3.117
		c0.243,1.411,0.673,2.77,1.513,3.926c0.985,1.354,2.215,2.479,3.739,3.238c0.081,0.044,0.162,0.089,0.243,0.133
		c0.06,0.005,0.12,0.012,0.179,0.018c0.067,0.093,0.113,0.231,0.204,0.274c1.424,0.673,2.964,1.032,4.497,0.883
		c2.855-0.277,5.282-1.45,7.133-3.784c1.79-2.254,2.176-4.742,1.572-7.434c-0.165-0.734-0.343-1.6-1.188-1.993l0.003,0.004
		C18.792,15.925,18.746,15.875,18.699,15.825z"/>
	<path fill-rule="evenodd" clip-rule="evenodd" fill="#9AD111" d="M23.398,28.581c-2.832-1.305-3.469-4.479-1.566-6.776
		c0.638-0.769,0.834-1.591,0.889-2.458c0.141-2.245-0.348-4.328-1.953-6.022c-0.201-0.213-0.457-0.375-0.688-0.561
		c-0.097-0.234-0.313-0.33-0.512-0.449c-1.406-0.839-2.932-1.018-4.537-0.922c-2.175,0.128-3.948,1.053-5.208,2.773
		c-1.092,1.491-1.187,3.268-0.883,5.054c0.097,0.571,0.255,1.133,0.976,1.224c0.953,0.348,1.548-0.017,1.5-0.988
		c-0.064-1.321,0.083-2.533,0.968-3.625c0.777-0.958,2.355-1.593,3.59-1.44c0.948,0.117,1.708,0.457,2.336,1.149
		c0.022,0.068,0.06,0.092,0.118,0.036c0.049,0.006,0.085,0.03,0.11,0.07c-0.059,0.165,0.061,0.169,0.166,0.186l-0.006-0.005
		c0.047,0.05,0.093,0.1,0.139,0.15l-0.003-0.004c0.011,0.091-0.011,0.202,0.035,0.271c0.698,1.111,0.78,2.386,0.775,3.617
		c-0.008,2.3-0.927,4.296-2.546,5.914c-2.018,2.018-4.489,2.92-7.351,2.828c-1.085-0.034-2.082-0.424-3.133-0.576
		c-0.059-0.006-0.119-0.013-0.179-0.019c-0.053-0.095-0.132-0.143-0.242-0.132c-1.524-0.759-2.754-1.884-3.739-3.238
		c-0.84-1.156-1.271-2.515-1.513-3.926c-0.178-1.034-0.161-2.077-0.133-3.117c0.071-2.635,0.695-5.13,2.069-7.397
		c0.336-0.554,0.292-1.02-0.122-1.422C1.821,7.865,1.381,6.719,1.409,5.485c0.023-1.055,0.125-2.164,0.773-3.1
		C2.656,1.7,3.052,1.58,3.852,1.782c0.873,0.219,1.579,0.736,2.32,1.196c0.76,0.471,1.505,0.972,2.281,1.415
		c0.654,0.374,1.265-0.026,1.838-0.258c1.364-0.549,2.78-0.765,4.231-0.891c1.829-0.159,3.613,0.111,5.391,0.451
		c0.6,0.114,1.21,0.31,1.745,0.6c0.721,0.391,1.259,0.136,1.858-0.242c1.309-0.824,2.545-1.785,4.055-2.25
		c0.515-0.159,1.002-0.204,1.359,0.314c1.204,2.273,1.39,4.475-0.374,6.593c-0.332,0.401-0.337,0.889,0,1.397
		c0.42,0.632,0.772,1.318,1.074,2.016c1.225,2.834,1.522,5.773,1.165,8.844c-0.292,2.497-1.151,4.641-2.96,6.404
		c-0.904,0.882-1.941,1.372-3.209,1.399C24.199,28.779,23.83,28.49,23.398,28.581z"/>
	<path fill-rule="evenodd" clip-rule="evenodd" fill="#A6A6A6" d="M23.398,28.581c0.432-0.091,0.801,0.198,1.229,0.189
		c1.268-0.027,2.305-0.518,3.209-1.399c1.809-1.764,2.668-3.907,2.96-6.404c0.357-3.07,0.06-6.01-1.165-8.844
		c-0.302-0.698-0.654-1.384-1.074-2.016c-0.337-0.508-0.332-0.997,0-1.397c1.764-2.118,1.578-4.32,0.374-6.593
		c1.226,0.722,1.477,1.948,1.564,3.2c0.099,1.396-0.289,2.66-1.271,3.728c-0.402,0.437-0.32,0.982,0.003,1.477
		c1.058,1.62,1.762,3.409,2.106,5.286c0.495,2.704,0.399,5.422-0.407,8.08c-0.624,2.055-1.866,3.649-3.646,4.824
		C26.14,29.465,24.438,29.389,23.398,28.581z"/>
	<path fill-rule="evenodd" clip-rule="evenodd" fill="#A2A39F" d="M6.616,28.024c1.051,0.152,2.048,0.542,3.133,0.576
		c2.861,0.092,5.333-0.811,7.351-2.828c1.619-1.618,2.538-3.614,2.546-5.914c0.005-1.23-0.077-2.506-0.775-3.617
		c-0.046-0.069-0.024-0.18-0.035-0.271c0.845,0.394,1.022,1.259,1.188,1.993c0.604,2.691,0.218,5.18-1.572,7.434
		c-1.852,2.334-4.278,3.507-7.133,3.784c-1.533,0.149-3.073-0.21-4.497-0.883C6.729,28.256,6.684,28.117,6.616,28.024z"/>
	<path fill-rule="evenodd" clip-rule="evenodd" fill="#A4A5A1" d="M9.917,20.442c-0.72-0.091-0.879-0.652-0.976-1.224
		c-0.303-1.786-0.209-3.563,0.883-5.054c1.259-1.72,3.033-2.645,5.208-2.773c1.605-0.095,3.13,0.083,4.537,0.922
		c0.199,0.119,0.415,0.214,0.512,0.449c-1.435-0.75-2.97-0.954-4.565-0.874c-2.409,0.121-5.32,1.825-5.862,4.569
		C9.392,17.781,9.163,19.16,9.917,20.442z"/>
	<path fill-rule="evenodd" clip-rule="evenodd" fill="#A2A39F" d="M18.705,15.83c-0.105-0.017-0.225-0.021-0.166-0.186
		C18.594,15.706,18.649,15.769,18.705,15.83z"/>
	<path fill-rule="evenodd" clip-rule="evenodd" fill="#A2A39F" d="M18.429,15.574c-0.059,0.056-0.096,0.033-0.118-0.036
		C18.356,15.531,18.396,15.543,18.429,15.574z"/>
	<path fill-rule="evenodd" clip-rule="evenodd" fill="#A2A39F" d="M18.838,15.975c-0.046-0.05-0.092-0.101-0.139-0.15
		C18.746,15.875,18.792,15.925,18.838,15.975z"/>
	<path fill-rule="evenodd" clip-rule="evenodd" fill="#A2A39F" d="M6.195,27.874c0.11-0.011,0.189,0.037,0.242,0.132
		C6.357,27.963,6.276,27.918,6.195,27.874z"/>
</g>
</svg>
