<?xml version="1.0" encoding="utf-8"?>
<!-- Generator: Adobe Illustrator 16.0.0, SVG Export Plug-In . SVG Version: 6.00 Build 0)  -->
<!DOCTYPE svg PUBLIC "-//W3C//DTD SVG 1.1//EN" "http://www.w3.org/Graphics/SVG/1.1/DTD/svg11.dtd">
<svg version="1.1" id="レイヤー_1" xmlns="http://www.w3.org/2000/svg" xmlns:xlink="http://www.w3.org/1999/xlink" x="0px"
	 y="0px" width="612px" height="792px" viewBox="0 0 612 792" enable-background="new 0 0 612 792" xml:space="preserve">
<g>
	<path fill-rule="evenodd" clip-rule="evenodd" fill="#FEFEFE" d="M77.774,429.42c0-59.486,0.05-118.972-0.114-178.458
		c-0.011-3.956,0.784-4.735,4.768-4.731c119.851,0.135,239.701,0.135,359.551,0c3.984-0.004,4.771,0.776,4.766,4.731
		c-0.136,118.972-0.136,237.944,0,356.917c0.005,3.953-0.781,4.734-4.766,4.73c-119.851-0.137-239.701-0.137-359.551,0
		c-3.984,0.004-4.779-0.775-4.768-4.73C77.824,548.393,77.774,488.906,77.774,429.42z M289.574,414.904l0.051,0.049
		c-0.462-0.514-0.926-1.023-1.39-1.535c-0.208-0.342-0.511-0.535-0.909-0.582c-0.277-0.254-0.606-0.352-0.988-0.297
		c-5.22-5.723-11.559-8.529-19.452-9.498c-10.275-1.264-23.408,3.982-29.88,11.906c-7.366,9.018-8.593,19.029-8.052,29.953
		c0.397,8.025-4.559,11.031-12.49,8.17c-6.278-10.598-4.373-22-2.199-32.93c4.51-22.668,28.748-36.748,48.798-37.751
		c13.279-0.664,26.067,1.019,38.003,7.219c1.92,1.535,4.047,2.877,5.727,4.638c13.36,14.004,17.437,31.217,16.258,49.768
		c-0.456,7.166-2.088,13.957-7.395,20.313c-15.841,18.973-10.541,45.207,13.029,55.986c8.675,6.674,22.828,7.307,32.324,1.08
		c14.812-9.711,25.155-22.893,30.347-39.861c6.723-21.973,7.518-44.43,3.391-66.777c-2.863-15.51-8.721-30.293-17.531-43.678
		c-2.689-4.086-3.369-8.59-0.024-12.2c8.17-8.821,11.393-19.265,10.576-30.803c-0.731-10.343-2.82-20.481-13.018-26.442
		c-2.977-4.287-7.029-3.913-11.322-2.599c-12.565,3.844-22.858,11.787-33.757,18.597c-4.989,3.117-9.46,5.221-15.463,1.995
		c-4.453-2.394-9.535-4.011-14.533-4.957c-14.797-2.802-29.656-5.032-44.871-3.72c-12.082,1.042-23.87,2.828-35.224,7.366
		c-4.775,1.908-9.861,5.218-15.301,2.129c-6.462-3.669-12.659-7.799-18.992-11.696c-6.169-3.797-12.042-8.067-19.31-9.881
		c-6.655-1.662-9.958-0.673-13.904,4.987c-5.39,7.732-6.24,16.892-6.435,25.617c-0.227,10.196,3.434,19.669,11.226,27.18
		c3.444,3.321,3.813,7.165,1.016,11.745c-11.445,18.735-16.635,39.348-17.226,61.127c-0.233,8.592-0.375,17.211,1.105,25.758
		c2.019,11.658,5.601,22.883,12.595,32.432c8.206,11.203,18.44,20.496,31.128,26.768c0.674,0.365,1.347,0.729,2.021,1.094
		c0.497,0.047,0.993,0.094,1.489,0.141c0.557,0.777,0.939,1.92,1.696,2.275c11.853,5.553,24.669,8.527,37.43,7.297
		c23.77-2.293,43.971-11.986,59.384-31.271c14.888-18.629,18.106-39.182,13.082-61.426c-1.371-6.072-2.848-13.221-9.879-16.473
		l0.027,0.037C290.346,415.734,289.96,415.318,289.574,414.904z"/>
	<path fill-rule="evenodd" clip-rule="evenodd" fill="#CFCFCF" d="M328.686,520.313c-23.57-10.779-28.87-37.014-13.029-55.986
		c5.307-6.355,6.938-13.146,7.395-20.313c1.179-18.551-2.897-35.764-16.258-49.768c-1.679-1.761-3.806-3.103-5.726-4.636
		c-0.803-1.938-2.597-2.723-4.261-3.711c-11.697-6.932-24.408-8.407-37.766-7.624c-18.1,1.062-32.863,8.705-43.349,22.918
		c-9.087,12.316-9.877,27.002-7.35,41.766c0.806,4.713,2.127,9.35,8.122,10.111c7.931,2.861,12.887-0.145,12.49-8.17
		c-0.541-10.924,0.687-20.936,8.052-29.953c6.472-7.924,19.604-13.17,29.88-11.906c7.893,0.969,14.231,3.775,19.452,9.498
		c0.186,0.568,0.487,0.76,0.988,0.297c0.398,0.047,0.701,0.24,0.908,0.582c-0.481,1.355,0.515,1.393,1.391,1.535l-0.051-0.049
		c0.386,0.416,0.772,0.83,1.159,1.246l-0.027-0.037c0.082,0.754-0.083,1.662,0.283,2.238c5.824,9.182,6.496,19.717,6.461,29.891
		c-0.064,19.008-7.713,35.496-21.191,48.869c-16.796,16.664-37.368,24.125-61.188,23.371c-9.03-0.287-17.332-3.506-26.077-4.771
		c-0.497-0.047-0.993-0.094-1.493-0.143c-0.443-0.785-1.097-1.182-2.017-1.092c-12.688-6.271-22.922-15.564-31.128-26.768
		c-6.995-9.549-10.576-20.773-12.595-32.432c-1.48-8.547-1.338-17.166-1.105-25.758c0.591-21.779,5.781-42.392,17.226-61.127
		c2.797-4.58,2.429-8.424-1.016-11.745c-7.792-7.511-11.452-16.984-11.226-27.18c0.194-8.725,1.044-17.884,6.435-25.617
		c3.946-5.66,7.249-6.648,13.904-4.987c7.268,1.814,13.14,6.084,19.31,9.881c6.333,3.897,12.529,8.027,18.992,11.696
		c5.44,3.089,10.526-0.221,15.301-2.129c11.354-4.538,23.143-6.324,35.224-7.366c15.215-1.312,30.074,0.918,44.871,3.72
		c4.998,0.945,10.08,2.563,14.533,4.957c6.003,3.226,10.474,1.122,15.463-1.995c10.898-6.811,21.191-14.753,33.757-18.597
		c4.293-1.314,8.346-1.688,11.322,2.599c10.01,18.778,11.553,36.976-3.113,54.482c-2.772,3.309-2.812,7.346-0.005,11.546
		c3.492,5.222,6.43,10.896,8.939,16.662c10.196,23.416,12.679,47.705,9.692,73.08c-2.428,20.629-9.584,38.34-24.634,52.916
		c-7.522,7.285-16.161,11.344-26.71,11.566C335.361,521.957,332.284,519.566,328.686,520.313z"/>
	<path fill-rule="evenodd" clip-rule="evenodd" fill="#A6A6A6" d="M328.686,520.313c3.599-0.746,6.676,1.645,10.234,1.57
		c10.549-0.223,19.188-4.281,26.71-11.566c15.05-14.576,22.206-32.287,24.634-52.916c2.986-25.375,0.504-49.664-9.692-73.08
		c-2.51-5.766-5.447-11.44-8.939-16.662c-2.807-4.2-2.768-8.237,0.005-11.546c14.666-17.507,13.123-35.705,3.113-54.482
		c10.197,5.961,12.286,16.1,13.018,26.442c0.816,11.538-2.406,21.982-10.576,30.803c-3.345,3.61-2.665,8.114,0.024,12.2
		c8.811,13.385,14.668,28.168,17.531,43.678c4.127,22.348,3.332,44.805-3.391,66.777c-5.191,16.969-15.535,30.15-30.347,39.861
		C351.514,527.619,337.36,526.986,328.686,520.313z"/>
	<path fill-rule="evenodd" clip-rule="evenodd" fill="#A2A39F" d="M188.993,515.711c8.745,1.266,17.047,4.484,26.077,4.771
		c23.821,0.754,44.392-6.707,61.188-23.371c13.478-13.373,21.127-29.861,21.191-48.869c0.035-10.174-0.637-20.709-6.461-29.891
		c-0.366-0.576-0.201-1.484-0.283-2.238c7.032,3.252,8.509,10.4,9.879,16.473c5.025,22.244,1.807,42.797-13.082,61.426
		c-15.413,19.285-35.614,28.979-59.384,31.271c-12.761,1.23-25.577-1.744-37.43-7.297
		C189.932,517.631,189.55,516.488,188.993,515.711z"/>
	<path fill-rule="evenodd" clip-rule="evenodd" fill="#A4A5A1" d="M216.464,453.07c-5.995-0.762-7.316-5.398-8.122-10.111
		c-2.527-14.764-1.737-29.449,7.35-41.766c10.485-14.213,25.249-21.856,43.349-22.918c13.357-0.784,26.068,0.691,37.766,7.624
		c1.665,0.988,3.458,1.773,4.261,3.711c-11.937-6.202-24.725-7.885-38.004-7.221c-20.051,1.004-44.288,15.083-48.798,37.751
		C212.091,431.07,210.186,442.473,216.464,453.07z"/>
	<path fill-rule="evenodd" clip-rule="evenodd" fill="#A2A39F" d="M289.625,414.953c-0.876-0.143-1.872-0.18-1.391-1.535
		C288.699,413.93,289.162,414.439,289.625,414.953z"/>
	<path fill-rule="evenodd" clip-rule="evenodd" fill="#A2A39F" d="M287.326,412.836c-0.501,0.463-0.802,0.271-0.988-0.297
		C286.719,412.484,287.049,412.582,287.326,412.836z"/>
	<path fill-rule="evenodd" clip-rule="evenodd" fill="#A2A39F" d="M290.732,416.15c-0.386-0.416-0.772-0.83-1.159-1.246
		C289.96,415.318,290.346,415.734,290.732,416.15z"/>
	<path fill-rule="evenodd" clip-rule="evenodd" fill="#A2A39F" d="M185.483,514.477c0.919-0.09,1.574,0.307,2.017,1.092
		C186.83,515.205,186.157,514.842,185.483,514.477z"/>
</g>
</svg>
